<svg width="35" height="35" viewBox="0 0 35 35" fill="none" xmlns="http://www.w3.org/2000/svg">
<g clip-path="url(#clip0_1_401)">
<path d="M8.87509 34.8762C6.79362 34.7816 5.66291 34.4352 4.91084 34.1418C3.91432 33.7538 3.20385 33.292 2.45594 32.5451C1.70803 31.7982 1.24513 31.0878 0.859215 30.0912C0.565875 29.3392 0.219485 28.2085 0.124825 26.127C0.0208042 23.877 0 23.2019 0 17.5016C0 11.8012 0.0228847 11.1271 0.123785 8.87509C0.218444 6.79362 0.566915 5.66499 0.858175 4.91084C1.24617 3.91432 1.70907 3.20385 2.4549 2.4549C3.20177 1.70803 3.91224 1.24409 4.9098 0.858175C5.66187 0.564835 6.79258 0.218444 8.87405 0.123785C11.1251 0.0208042 11.8012 0 17.4995 0C23.1998 0 23.8739 0.0228847 26.126 0.123785C28.2074 0.218444 29.336 0.566915 30.0902 0.858175C31.0867 1.24409 31.7972 1.70803 32.5451 2.4549C33.293 3.20177 33.7538 3.91328 34.1418 4.9098C34.4352 5.66187 34.7816 6.79258 34.8762 8.87405C34.9792 11.1261 35 11.8002 35 17.5005C35 23.1988 34.9792 23.8749 34.8762 26.127C34.7816 28.2085 34.4331 29.3392 34.1418 30.0912C33.7538 31.0878 33.292 31.7982 32.5451 32.5451C31.7982 33.292 31.0867 33.7538 30.0902 34.1418C29.3381 34.4352 28.2074 34.7816 26.126 34.8762C23.876 34.9792 23.1998 35 17.4995 35C11.8012 35 11.1251 34.9802 8.87509 34.8762Z" fill="#15BFFD"/>
<path d="M13.2029 17.5747C13.2029 15.181 15.1428 13.2401 17.5365 13.2401C19.9301 13.2401 21.871 15.181 21.871 17.5747C21.871 19.9683 19.9301 21.9092 17.5365 21.9092C15.1428 21.9092 13.2029 19.9683 13.2029 17.5747ZM10.8598 17.5747C10.8598 21.2622 13.8489 24.2514 17.5365 24.2514C21.224 24.2514 24.2132 21.2622 24.2132 17.5747C24.2132 13.8871 21.224 10.898 17.5365 10.898C13.8489 10.898 10.8599 13.8869 10.8599 17.5747M22.9173 10.6332C22.9171 10.9418 23.0085 11.2435 23.1799 11.5002C23.3512 11.7569 23.5948 11.9569 23.8799 12.0752C24.165 12.1934 24.4787 12.2244 24.7814 12.1643C25.0841 12.1042 25.3621 11.9557 25.5805 11.7376C25.7988 11.5195 25.9475 11.2415 26.0078 10.9389C26.0681 10.6362 26.0373 10.3225 25.9194 10.0373C25.8014 9.75217 25.6015 9.5084 25.345 9.33684C25.0884 9.16529 24.7868 9.07366 24.4782 9.07354H24.4776C24.0639 9.07373 23.6673 9.2381 23.3747 9.53054C23.0821 9.82298 22.9176 10.2196 22.9173 10.6332ZM12.2834 28.1586C11.0157 28.1009 10.3266 27.8897 9.86875 27.7113C9.26168 27.475 8.82853 27.1935 8.37313 26.7387C7.91773 26.2839 7.63583 25.8512 7.40053 25.2441C7.22203 24.7865 7.01087 24.0972 6.95324 22.8295C6.8902 21.4589 6.87762 21.0472 6.87762 17.5749C6.87762 14.1025 6.89124 13.692 6.95324 12.3202C7.01097 11.0525 7.2237 10.3646 7.40053 9.9056C7.63687 9.29853 7.91835 8.86539 8.37313 8.40999C8.82791 7.95458 9.26064 7.67268 9.86875 7.43739C10.3264 7.25889 11.0157 7.04772 12.2834 6.9901C13.654 6.92706 14.0657 6.91447 17.5365 6.91447C21.0072 6.91447 21.4194 6.92789 22.7911 6.99031C24.0588 7.04804 24.7467 7.26076 25.2057 7.4376C25.8128 7.67289 26.2459 7.95541 26.7013 8.41019C27.1567 8.86497 27.4376 9.29874 27.6739 9.90581C27.8524 10.3635 28.0636 11.0527 28.1212 12.3205C28.1843 13.6922 28.1969 14.1028 28.1969 17.5751C28.1969 21.0474 28.1843 21.458 28.1212 22.8297C28.0635 24.0974 27.8513 24.7865 27.6739 25.2444C27.4376 25.8514 27.1561 26.2846 26.7013 26.7389C26.2466 27.1933 25.8128 27.4752 25.2057 27.7115C24.748 27.89 24.0588 28.1012 22.7911 28.1588C21.4205 28.2219 21.0088 28.2344 17.5365 28.2344C14.0641 28.2344 13.6536 28.2219 12.2834 28.1588M12.1757 4.65077C10.7915 4.7138 9.84565 4.93329 9.01962 5.25471C8.16467 5.58664 7.43996 6.03196 6.71628 6.75449C5.99261 7.47702 5.54844 8.20184 5.2165 9.05783C4.89508 9.88438 4.67559 10.8297 4.61256 12.2139C4.54848 13.6003 4.53381 14.0436 4.53381 17.5747C4.53381 21.1058 4.54848 21.549 4.61256 22.9354C4.67559 24.3197 4.89508 25.2649 5.2165 26.0915C5.54844 26.9465 5.99271 27.6726 6.71628 28.3948C7.43985 29.1171 8.16363 29.5617 9.01962 29.8946C9.84721 30.216 10.7915 30.4355 12.1757 30.4986C13.5628 30.5616 14.0054 30.5773 17.5365 30.5773C21.0676 30.5773 21.5108 30.5626 22.8972 30.4986C24.2815 30.4355 25.2267 30.216 26.0533 29.8946C26.9082 29.5617 27.633 29.1174 28.3566 28.3948C29.0803 27.6723 29.5235 26.9465 29.8564 26.0915C30.1778 25.2649 30.3984 24.3196 30.4604 22.9354C30.5234 21.548 30.5381 21.1058 30.5381 17.5747C30.5381 14.0436 30.5234 13.6003 30.4604 12.2139C30.3973 10.8296 30.1778 9.88386 29.8564 9.05783C29.5235 8.20288 29.0792 7.47816 28.3566 6.75449C27.6341 6.03081 26.9082 5.58664 26.0543 5.25471C25.2267 4.93329 24.2814 4.71276 22.8982 4.65077C21.5116 4.58742 21.0686 4.57202 17.538 4.57202C14.0074 4.57202 13.5634 4.58669 12.1762 4.65077" fill="white"/>
</g>
<defs>
<clipPath id="clip0_1_401">
<rect width="35" height="35" rx="9" fill="white"/>
</clipPath>
</defs>
</svg>
