<svg width="102" height="17" viewBox="0 0 102 17" fill="none" xmlns="http://www.w3.org/2000/svg">
<path d="M0.726 8.256C0.726 6.73067 1.056 5.374 1.716 4.186C2.376 2.98333 3.29267 2.052 4.466 1.392C5.654 0.717333 6.996 0.379999 8.492 0.379999C10.3253 0.379999 11.8947 0.863999 13.2 1.832C14.5053 2.8 15.378 4.12 15.818 5.792H11.682C11.374 5.14667 10.934 4.65533 10.362 4.318C9.80467 3.98067 9.16667 3.812 8.448 3.812C7.28933 3.812 6.35067 4.21533 5.632 5.022C4.91333 5.82867 4.554 6.90667 4.554 8.256C4.554 9.60533 4.91333 10.6833 5.632 11.49C6.35067 12.2967 7.28933 12.7 8.448 12.7C9.16667 12.7 9.80467 12.5313 10.362 12.194C10.934 11.8567 11.374 11.3653 11.682 10.72H15.818C15.378 12.392 14.5053 13.712 13.2 14.68C11.8947 15.6333 10.3253 16.11 8.492 16.11C6.996 16.11 5.654 15.78 4.466 15.12C3.29267 14.4453 2.376 13.514 1.716 12.326C1.056 11.138 0.726 9.78133 0.726 8.256ZM29.6938 9.664C29.6938 10.016 29.6718 10.3827 29.6278 10.764H21.1138C21.1725 11.5267 21.4145 12.1133 21.8398 12.524C22.2798 12.92 22.8151 13.118 23.4458 13.118C24.3845 13.118 25.0371 12.722 25.4038 11.93H29.4078C29.2025 12.7367 28.8285 13.4627 28.2858 14.108C27.7578 14.7533 27.0905 15.2593 26.2838 15.626C25.4771 15.9927 24.5751 16.176 23.5778 16.176C22.3751 16.176 21.3045 15.9193 20.3658 15.406C19.4271 14.8927 18.6938 14.1593 18.1658 13.206C17.6378 12.2527 17.3738 11.138 17.3738 9.862C17.3738 8.586 17.6305 7.47133 18.1438 6.518C18.6718 5.56467 19.4051 4.83133 20.3438 4.318C21.2825 3.80467 22.3605 3.548 23.5778 3.548C24.7658 3.548 25.8218 3.79733 26.7458 4.296C27.6698 4.79467 28.3885 5.506 28.9018 6.43C29.4298 7.354 29.6938 8.432 29.6938 9.664ZM25.8438 8.674C25.8438 8.02867 25.6238 7.51533 25.1838 7.134C24.7438 6.75267 24.1938 6.562 23.5338 6.562C22.9031 6.562 22.3678 6.74533 21.9278 7.112C21.5025 7.47867 21.2385 7.99933 21.1358 8.674H25.8438ZM39.1585 3.592C40.5958 3.592 41.7398 4.06133 42.5905 5C43.4558 5.924 43.8885 7.2 43.8885 8.828V16H40.1485V9.334C40.1485 8.51267 39.9358 7.87467 39.5105 7.42C39.0851 6.96533 38.5131 6.738 37.7945 6.738C37.0758 6.738 36.5038 6.96533 36.0785 7.42C35.6531 7.87467 35.4405 8.51267 35.4405 9.334V16H31.6785V3.724H35.4405V5.352C35.8218 4.80933 36.3351 4.384 36.9805 4.076C37.6258 3.75333 38.3518 3.592 39.1585 3.592ZM45.7547 9.84C45.7547 8.57867 45.9893 7.47133 46.4587 6.518C46.9427 5.56467 47.5953 4.83133 48.4167 4.318C49.238 3.80467 50.1547 3.548 51.1667 3.548C52.032 3.548 52.7873 3.724 53.4327 4.076C54.0927 4.428 54.5987 4.89 54.9507 5.462V3.724H58.7127V16H54.9507V14.262C54.584 14.834 54.0707 15.296 53.4107 15.648C52.7653 16 52.01 16.176 51.1447 16.176C50.1473 16.176 49.238 15.9193 48.4167 15.406C47.5953 14.878 46.9427 14.1373 46.4587 13.184C45.9893 12.216 45.7547 11.1013 45.7547 9.84ZM54.9507 9.862C54.9507 8.92333 54.6867 8.18267 54.1587 7.64C53.6453 7.09733 53.0147 6.826 52.2667 6.826C51.5187 6.826 50.8807 7.09733 50.3527 7.64C49.8393 8.168 49.5827 8.90133 49.5827 9.84C49.5827 10.7787 49.8393 11.5267 50.3527 12.084C50.8807 12.6267 51.5187 12.898 52.2667 12.898C53.0147 12.898 53.6453 12.6267 54.1587 12.084C54.6867 11.5413 54.9507 10.8007 54.9507 9.862Z" fill="white"/>
<path d="M75.2503 16H71.4883L65.1963 6.474V16H61.4343V0.556H65.1963L71.4883 10.126V0.556H75.2503V16ZM88.0313 0.556V3.57H81.7393V6.826H86.4473V9.752H81.7393V16H77.9773V0.556H88.0313ZM101.119 0.556V3.57H97.0265V16H93.2645V3.57H89.1725V0.556H101.119Z" fill="#15BFFD"/>
</svg>
