<svg width="1575" height="870" viewBox="0 0 1575 870" fill="none" xmlns="http://www.w3.org/2000/svg">
<path d="M690.647 1.39333L689.79 8.53109L684.264 11.9007L690.605 13.197L693.832 19.6214L694.688 12.4837L700.214 9.11405L693.873 7.81778L690.647 1.39333Z" fill="#15BFFD"/>
<path d="M976.894 15.4357L976.037 22.5734L970.511 25.9431L976.853 27.2393L980.079 33.6638L980.935 26.526L986.461 23.1564L980.12 21.8601L976.894 15.4357Z" fill="#15BFFD"/>
<path d="M10.4074 432.899L9.28952 442.214L2.07811 446.612L10.3534 448.303L14.5636 456.687L15.6814 447.372L22.8928 442.975L14.6175 441.283L10.4074 432.899Z" fill="white"/>
<path d="M261.995 59.0514L260.887 68.2826L253.741 72.6405L261.942 74.3169L266.114 82.6256L267.222 73.3944L274.368 69.0365L266.167 67.3601L261.995 59.0514Z" fill="#15BFFD"/>
<path d="M1428.55 10.8659L1426.51 27.7946L1413.41 35.7864L1428.45 38.8608L1436.1 54.0978L1438.13 37.169L1451.24 29.1772L1436.2 26.1029L1428.55 10.8659Z" fill="#15BFFD"/>
<path d="M1561.01 326.977L1554.06 337.792L1542.54 338.905L1551.74 345.935L1551.92 358.786L1558.86 347.971L1570.38 346.858L1561.19 339.828L1561.01 326.977Z" fill="#15BFFD"/>
<path d="M1322.16 820.49L1320.03 838.233L1306.29 846.608L1322.05 849.831L1330.07 865.8L1332.2 848.057L1345.94 839.682L1330.17 836.46L1322.16 820.49Z" fill="#15BFFD"/>
<path d="M1088.51 768.438L1087.66 775.495L1082.2 778.826L1088.47 780.108L1091.66 786.459L1092.5 779.403L1097.97 776.071L1091.7 774.79L1088.51 768.438Z" fill="#15BFFD"/>
</svg>
