<svg width="35" height="35" viewBox="0 0 35 35" fill="none" xmlns="http://www.w3.org/2000/svg">
<g clip-path="url(#clip0_1_397)">
<path d="M34.9897 0H0.0102539C0.00459083 0 0 0.00459083 0 0.0102539V34.9897C0 34.9954 0.00459083 35 0.0102539 35H34.9897C34.9954 35 35 34.9954 35 34.9897V0.0102539C35 0.00459083 34.9954 0 34.9897 0Z" fill="#15BFFD"/>
<path d="M29.1894 11.5528C28.916 10.5274 28.0273 9.70712 27.0019 9.43369C24.6777 8.81845 10.664 8.75009 7.99802 9.43369C6.97263 9.70712 6.08395 10.5274 5.81052 11.5528C5.19528 14.1505 5.12692 20.7813 5.81052 23.4474C6.08395 24.4727 6.97263 25.2931 7.99802 25.5665C10.459 26.2501 24.4726 26.2501 27.0019 25.5665C28.0273 25.2931 28.916 24.4727 29.1894 23.4474C29.8047 20.9864 29.8047 14.0821 29.1894 11.5528Z" fill="white"/>
<path d="M15.0391 13.877V21.123L21.3965 17.5" fill="#15BFFD"/>
</g>
<defs>
<clipPath id="clip0_1_397">
<rect width="35" height="35" rx="9" fill="white"/>
</clipPath>
</defs>
</svg>
