<svg width="35" height="35" viewBox="0 0 35 35" fill="none" xmlns="http://www.w3.org/2000/svg">
<g clip-path="url(#clip0_1_405)">
<path d="M34.9897 0H0.0102539C0.00459083 0 0 0.00459083 0 0.0102539V34.9897C0 34.9954 0.00459083 35 0.0102539 35H34.9897C34.9954 35 35 34.9954 35 34.9897V0.0102539C35 0.00459083 34.9954 0 34.9897 0Z" fill="#15BFFD"/>
<path d="M29.873 10.3907C29.0527 10.8008 28.0957 11.0743 27.1387 11.211C28.1641 10.5958 28.916 9.63872 29.3262 8.47661C28.3691 9.02349 27.3438 9.43364 26.25 9.63872C25.5061 8.87681 24.5352 8.37671 23.4829 8.21346C22.4306 8.05022 21.3538 8.23263 20.414 8.73334C19.4742 9.23404 18.7222 10.026 18.2707 10.9904C17.8193 11.9548 17.6927 13.0397 17.9102 14.0821C14.082 13.877 10.3906 12.0997 7.99805 9.02349C7.67249 9.54347 7.45308 10.1227 7.35247 10.7279C7.25186 11.3331 7.27204 11.9522 7.41184 12.5496C7.55165 13.1469 7.80831 13.7107 8.16704 14.2083C8.52576 14.706 8.97945 15.1278 9.50195 15.4493C8.75 15.4493 7.99805 15.3125 7.31445 14.9708C7.38281 17.2266 8.95508 19.209 11.1426 19.6875C10.459 19.8926 9.70703 19.8926 8.95508 19.7559C9.63867 21.7383 11.4844 23.1055 13.5352 23.1739C11.5527 24.8145 8.88672 25.5665 6.35742 25.1563C8.47104 26.5667 10.9374 27.3569 13.4771 27.4374C16.0168 27.5179 18.5283 26.8855 20.727 25.6118C22.9257 24.3381 24.7237 22.4741 25.9173 20.2309C27.111 17.9878 27.6525 15.4551 27.4805 12.92C28.4375 12.2364 29.2578 11.4161 29.873 10.3907Z" fill="white"/>
</g>
<defs>
<clipPath id="clip0_1_405">
<rect width="35" height="35" rx="9" fill="white"/>
</clipPath>
</defs>
</svg>
