<svg width="12" height="16" viewBox="0 0 12 16" fill="none" xmlns="http://www.w3.org/2000/svg">
<path d="M6.00574 12.198L1.56531 10.03L6.00171 16L6.66821 15.103V11.8735L6.00574 12.198Z" fill="#15BFFD"/>
<path d="M6.00171 0L0.90625 9.14294H11.0973L6.00171 0Z" fill="#15BFFD"/>
<path d="M11.0973 9.15649L6.00171 0V9.15649H11.0973Z" fill="#1286B0"/>
<path d="M4.46021 5.078H5.46021V6.078H4.46021V5.078Z" fill="#F7F8FA"/>
<path d="M6.00171 6.66003L5.98169 6.65051L0.906738 9.15051H0.911255L5.98621 11.6505L6.00623 11.641L6.66821 11.317V6.98645L6.00171 6.66003Z" fill="#147EA5"/>
<path d="M4.46021 3.18652H5.46021V4.18652H4.46021V3.18652Z" fill="#F7F8FA"/>
<path d="M6.00574 12.198L6.00171 16L10.4413 10.026L6.00574 12.198Z" fill="#1286B0"/>
<path d="M11.0878 9.15051L6.00171 6.66003L5.98169 6.65051L5.98621 11.6505L6.00623 11.641L11.0923 9.15051H11.0878Z" fill="#0E526A"/>
</svg>
