<svg width="106" height="875" viewBox="0 0 106 875" fill="none" xmlns="http://www.w3.org/2000/svg">
<line x1="86.0909" y1="19.5308" x2="86.0909" y2="839.308" stroke="url(#paint0_linear_1_237)" stroke-opacity="0.7" stroke-width="4" stroke-linecap="round"/>
<ellipse cx="14.9667" cy="20.2154" rx="14.9667" ry="20.2154" transform="matrix(-1 0 0 1 100 625.677)" fill="#15BFFD"/>
<circle cx="86" cy="646" r="20" fill="#15BFFD"/>
<path d="M0 645.892L5 648.779L5 643.006L0 645.892ZM4.45804 646.392L7.43007 646.392L7.43007 645.392L4.45804 645.392L4.45804 646.392ZM10.4021 646.392L13.3741 646.392L13.3741 645.392L10.4021 645.392L10.4021 646.392ZM16.3462 646.392L19.3182 646.392L19.3182 645.392L16.3462 645.392L16.3462 646.392ZM22.2902 646.392L25.2622 646.392L25.2622 645.392L22.2902 645.392L22.2902 646.392ZM28.2343 646.392L31.2063 646.392L31.2063 645.392L28.2343 645.392L28.2343 646.392ZM34.1783 646.392L37.1504 646.392L37.1504 645.392L34.1783 645.392L34.1783 646.392ZM40.1224 646.392L43.0944 646.392L43.0944 645.392L40.1224 645.392L40.1224 646.392ZM46.0664 646.392L49.0385 646.392L49.0385 645.392L46.0664 645.392L46.0664 646.392ZM52.0105 646.392L54.9825 646.392L54.9825 645.392L52.0105 645.392L52.0105 646.392ZM57.9545 646.392L60.9266 646.392L60.9266 645.392L57.9545 645.392L57.9545 646.392ZM63.8986 646.392L66.8706 646.392L66.8706 645.392L63.8986 645.392L63.8986 646.392ZM69.8427 646.392L72.8147 646.392L72.8147 645.392L69.8427 645.392L69.8427 646.392ZM75.7867 646.392L77.2727 646.392L77.2727 645.392L75.7867 645.392L75.7867 646.392Z" fill="url(#paint1_linear_1_237)" fill-opacity="0.7"/>
<circle cx="86" cy="20" r="20" fill="#15BFFD"/>
<path d="M0 19.2154L4.98445 22.16L5.01488 16.3866L0 19.2154ZM4.54273 19.768L7.57298 19.8031L7.57825 18.8031L4.548 18.768L4.54273 19.768ZM10.6032 19.8382L13.6335 19.8733L13.6387 18.8733L10.6085 18.8382L10.6032 19.8382ZM16.6637 19.9084L19.694 19.9435L19.6992 18.9435L16.669 18.9084L16.6637 19.9084ZM22.7242 19.9786L25.7545 20.0137L25.7597 19.0137L22.7295 18.9786L22.7242 19.9786ZM28.7847 20.0488L31.815 20.0839L31.8202 19.0839L28.79 19.0488L28.7847 20.0488ZM34.8452 20.119L37.8754 20.1541L37.8807 19.1541L34.8505 19.119L34.8452 20.119ZM40.9057 20.1892L43.9359 20.2243L43.9412 19.2243L40.911 19.1892L40.9057 20.1892ZM46.9662 20.2594L49.9964 20.2945L50.0017 19.2945L46.9714 19.2594L46.9662 20.2594ZM53.0267 20.3296L56.0569 20.3647L56.0622 19.3647L53.0319 19.3296L53.0267 20.3296ZM59.0872 20.3998L62.1174 20.4349L62.1227 19.4349L59.0924 19.3998L59.0872 20.3998ZM65.1477 20.47L68.1779 20.5051L68.1832 19.5051L65.1529 19.47L65.1477 20.47ZM71.2081 20.5401L72.7233 20.5577L72.7286 19.5577L71.2134 19.5402L71.2081 20.5401Z" fill="url(#paint2_linear_1_237)" fill-opacity="0.7"/>
<ellipse cx="13.6364" cy="20.2154" rx="13.6364" ry="20.2154" transform="matrix(-1 0 0 1 100 207.892)" fill="#15BFFD"/>
<circle cx="86" cy="228" r="20" fill="#15BFFD"/>
<path d="M0 228.108L5 225.221L5 230.994L0 228.108ZM4.54545 227.608L7.57576 227.608L7.57576 228.608L4.54545 228.608L4.54545 227.608ZM10.6061 227.608L13.6364 227.608L13.6364 228.608L10.6061 228.608L10.6061 227.608ZM16.6667 227.608L19.697 227.608L19.697 228.608L16.6667 228.608L16.6667 227.608ZM22.7273 227.608L25.7576 227.608L25.7576 228.608L22.7273 228.608L22.7273 227.608ZM28.7879 227.608L31.8182 227.608L31.8182 228.608L28.7879 228.608L28.7879 227.608ZM34.8485 227.608L37.8788 227.608L37.8788 228.608L34.8485 228.608L34.8485 227.608ZM40.9091 227.608L43.9394 227.608L43.9394 228.608L40.9091 228.608L40.9091 227.608ZM46.9697 227.608L50 227.608L50 228.608L46.9697 228.608L46.9697 227.608ZM53.0303 227.608L56.0606 227.608L56.0606 228.608L53.0303 228.608L53.0303 227.608ZM59.0909 227.608L62.1212 227.608L62.1212 228.608L59.0909 228.608L59.0909 227.608ZM65.1515 227.608L68.1818 227.608L68.1818 228.608L65.1515 228.608L65.1515 227.608ZM71.2121 227.608L72.7273 227.608L72.7273 228.608L71.2121 228.608L71.2121 227.608Z" fill="url(#paint3_linear_1_237)" fill-opacity="0.7"/>
<ellipse cx="86.3637" cy="437" rx="13.6364" ry="20.2154" fill="#15BFFD"/>
<circle cx="86" cy="437" r="20" fill="#15BFFD"/>
<path d="M0 437L5 439.887L5 434.113L0 437ZM4.54545 437.5L7.57576 437.5L7.57576 436.5L4.54545 436.5L4.54545 437.5ZM10.6061 437.5L13.6364 437.5L13.6364 436.5L10.6061 436.5L10.6061 437.5ZM16.6667 437.5L19.697 437.5L19.697 436.5L16.6667 436.5L16.6667 437.5ZM22.7273 437.5L25.7576 437.5L25.7576 436.5L22.7273 436.5L22.7273 437.5ZM28.7879 437.5L31.8182 437.5L31.8182 436.5L28.7879 436.5L28.7879 437.5ZM34.8485 437.5L37.8788 437.5L37.8788 436.5L34.8485 436.5L34.8485 437.5ZM40.9091 437.5L43.9394 437.5L43.9394 436.5L40.9091 436.5L40.9091 437.5ZM46.9697 437.5L50 437.5L50 436.5L46.9697 436.5L46.9697 437.5ZM53.0303 437.5L56.0606 437.5L56.0606 436.5L53.0303 436.5L53.0303 437.5ZM59.0909 437.5L62.1212 437.5L62.1212 436.5L59.0909 436.5L59.0909 437.5ZM65.1515 437.5L68.1818 437.5L68.1818 436.5L65.1515 436.5L65.1515 437.5ZM71.2121 437.5L72.7273 437.5L72.7273 436.5L71.2121 436.5L71.2121 437.5Z" fill="url(#paint4_linear_1_237)" fill-opacity="0.7"/>
<ellipse cx="85.3658" cy="854.784" rx="14.6341" ry="20.2154" fill="#15BFFD"/>
<circle cx="86" cy="855" r="20" fill="#15BFFD"/>
<path d="M0 854.785L5 851.898L5 857.671L0 854.785ZM4.50281 854.285L7.50469 854.285L7.50469 855.285L4.50281 855.285L4.50281 854.285ZM10.5066 854.285L13.5084 854.285L13.5084 855.285L10.5066 855.285L10.5066 854.285ZM16.5103 854.285L19.5122 854.285L19.5122 855.285L16.5103 855.285L16.5103 854.285ZM22.5141 854.285L25.516 854.285L25.516 855.285L22.5141 855.285L22.5141 854.285ZM28.5178 854.285L31.5197 854.285L31.5197 855.285L28.5178 855.285L28.5178 854.285ZM34.5216 854.285L37.5235 854.285L37.5235 855.285L34.5216 855.285L34.5216 854.285ZM40.5253 854.285L43.5272 854.285L43.5272 855.285L40.5253 855.285L40.5253 854.285ZM46.5291 854.285L49.531 854.285L49.531 855.285L46.5291 855.285L46.5291 854.285ZM52.5328 854.285L55.5347 854.285L55.5347 855.285L52.5328 855.285L52.5328 854.285ZM58.5366 854.285L61.5385 854.285L61.5385 855.285L58.5366 855.285L58.5366 854.285ZM64.5403 854.285L67.5422 854.285L67.5422 855.285L64.5403 855.285L64.5403 854.285ZM70.5441 854.285L73.546 854.285L73.546 855.285L70.5441 855.285L70.5441 854.285ZM76.5479 854.285L78.0488 854.285L78.0488 855.285L76.5479 855.285L76.5479 854.285Z" fill="url(#paint5_linear_1_237)" fill-opacity="0.7"/>
<defs>
<linearGradient id="paint0_linear_1_237" x1="61.086" y1="343.466" x2="61.0394" y2="343.522" gradientUnits="userSpaceOnUse">
<stop stop-color="#15BFFD"/>
<stop offset="1" stop-color="#9C37FD"/>
</linearGradient>
<linearGradient id="paint1_linear_1_237" x1="8.5" y1="645.986" x2="8.50942" y2="647.363" gradientUnits="userSpaceOnUse">
<stop stop-color="#15BFFD"/>
<stop offset="1" stop-color="#9C37FD"/>
</linearGradient>
<linearGradient id="paint2_linear_1_237" x1="7.99936" y1="19.4022" x2="7.99342" y2="20.7785" gradientUnits="userSpaceOnUse">
<stop stop-color="#15BFFD"/>
<stop offset="1" stop-color="#9C37FD"/>
</linearGradient>
<linearGradient id="paint3_linear_1_237" x1="8" y1="228.014" x2="8.01" y2="226.637" gradientUnits="userSpaceOnUse">
<stop stop-color="#15BFFD"/>
<stop offset="1" stop-color="#9C37FD"/>
</linearGradient>
<linearGradient id="paint4_linear_1_237" x1="8" y1="437.094" x2="8.01" y2="438.47" gradientUnits="userSpaceOnUse">
<stop stop-color="#15BFFD"/>
<stop offset="1" stop-color="#9C37FD"/>
</linearGradient>
<linearGradient id="paint5_linear_1_237" x1="8.58537" y1="854.69" x2="8.59469" y2="853.314" gradientUnits="userSpaceOnUse">
<stop stop-color="#15BFFD"/>
<stop offset="1" stop-color="#9C37FD"/>
</linearGradient>
</defs>
</svg>
