<?xml version="1.0" standalone="no"?>
<!DOCTYPE svg PUBLIC "-//W3C//DTD SVG 20010904//EN"
 "http://www.w3.org/TR/2001/REC-SVG-20010904/DTD/svg10.dtd">
<svg version="1.0" xmlns="http://www.w3.org/2000/svg"
 width="1024.000000pt" height="1024.000000pt" viewBox="0 0 1024.000000 1024.000000"
 preserveAspectRatio="xMidYMid meet">
<metadata>
Created by potrace 1.14, written by Peter Selinger 2001-2017
</metadata>
<g transform="translate(0.000000,1024.000000) scale(0.100000,-0.100000)"
fill="#000000" stroke="none">
<path d="M5087 10183 c-14 -26 -36 -68 -48 -93 -12 -25 -25 -47 -28 -50 -7 -6
-49 -82 -66 -117 -5 -13 -14 -23 -18 -23 -5 0 -6 -4 -3 -9 3 -5 -1 -14 -9 -21
-8 -7 -15 -16 -15 -20 0 -4 -36 -72 -80 -150 -44 -78 -80 -146 -80 -150 0 -5
-3 -10 -7 -12 -5 -1 -17 -21 -28 -43 -28 -55 -98 -179 -104 -185 -3 -3 -7 -12
-9 -20 -2 -8 -8 -21 -14 -28 -12 -14 -58 -97 -86 -152 -9 -19 -21 -39 -25 -45
-4 -5 -57 -100 -118 -210 -61 -110 -123 -220 -137 -245 -13 -25 -38 -70 -55
-100 -16 -30 -47 -84 -67 -120 -37 -65 -60 -106 -128 -230 -20 -36 -47 -85
-62 -110 -14 -25 -30 -52 -34 -60 -4 -8 -15 -29 -24 -45 -9 -17 -44 -79 -77
-139 -33 -59 -65 -115 -70 -124 -6 -9 -25 -44 -43 -77 -18 -33 -48 -87 -67
-120 -18 -33 -43 -78 -55 -100 -11 -22 -37 -67 -56 -100 -19 -33 -40 -71 -47
-85 -6 -14 -14 -27 -17 -30 -4 -3 -15 -23 -27 -45 -19 -38 -45 -86 -90 -165
-11 -19 -40 -71 -64 -115 -24 -44 -49 -89 -56 -100 -7 -11 -15 -27 -19 -35 -7
-14 -115 -208 -134 -240 -5 -8 -44 -78 -87 -155 -88 -158 -86 -155 -138 -250
-21 -38 -43 -77 -50 -85 -7 -8 -15 -23 -18 -33 -4 -10 -26 -51 -49 -90 -23
-40 -43 -74 -43 -77 0 -5 -127 -233 -145 -260 -5 -8 -20 -35 -33 -60 -13 -25
-54 -98 -90 -162 -37 -65 -67 -122 -67 -128 0 -5 -3 -10 -7 -10 -5 0 -19 -24
-33 -53 -14 -28 -28 -54 -31 -57 -4 -3 -23 -36 -43 -75 -20 -38 -46 -86 -58
-105 -11 -19 -37 -65 -57 -101 -35 -64 -90 -165 -143 -259 -14 -25 -35 -63
-47 -85 l-21 -40 38 -19 c20 -11 39 -20 42 -21 5 0 77 -36 815 -401 187 -92
343 -168 347 -169 4 0 13 -6 20 -13 6 -6 16 -12 20 -12 14 0 242 -114 250
-125 4 -5 8 -7 8 -3 0 3 109 -48 243 -114 133 -66 382 -189 552 -273 171 -84
435 -214 587 -289 152 -75 282 -136 287 -136 6 0 11 -4 11 -9 0 -22 39 -16
100 15 243 122 620 304 629 304 6 0 11 5 11 10 0 6 4 10 10 10 9 0 460 216
505 242 11 7 38 20 60 31 22 10 90 43 150 73 61 30 116 54 123 54 6 0 12 3 12
8 0 8 49 32 67 32 7 0 13 5 13 10 0 6 4 10 10 10 5 0 127 58 272 129 145 71
360 176 478 234 118 57 341 167 495 243 154 76 282 138 285 139 3 1 22 9 43
19 39 17 47 36 22 56 -8 7 -15 16 -15 20 0 4 -25 51 -55 105 -30 53 -55 98
-55 99 0 2 -22 42 -50 90 -27 48 -50 91 -50 96 0 5 -6 15 -13 22 -7 7 -18 24
-25 38 -6 14 -16 32 -22 40 -23 35 -150 273 -150 281 0 5 -4 9 -9 9 -5 0 -14
15 -22 33 -7 17 -24 50 -39 72 -14 22 -32 54 -40 70 -8 17 -23 42 -33 58 -10
15 -15 27 -11 27 4 0 0 8 -8 18 -15 17 -37 57 -121 212 -22 41 -48 87 -58 102
-11 14 -19 28 -19 31 0 2 -26 51 -58 108 -103 183 -136 244 -134 247 2 1 -4
10 -13 18 -8 9 -15 22 -15 30 0 8 -3 14 -8 14 -4 0 -13 15 -21 33 -8 17 -22
43 -31 57 -9 14 -35 59 -57 100 -45 83 -68 125 -158 285 -34 61 -75 135 -92
165 -17 30 -50 89 -73 130 -38 67 -83 149 -138 250 -11 19 -38 69 -62 110 -23
41 -58 104 -78 140 -19 36 -63 115 -97 175 -65 115 -94 167 -153 275 -20 36
-48 87 -64 113 -15 26 -28 52 -28 57 0 6 -4 10 -10 10 -5 0 -10 5 -10 11 0 9
-109 210 -151 279 -5 8 -17 31 -27 50 -11 19 -36 64 -56 100 -20 36 -40 73
-43 83 -3 9 -9 17 -13 17 -4 0 -11 11 -14 25 -4 14 -11 25 -16 25 -6 0 -10 7
-10 16 0 8 -11 32 -25 52 -14 20 -25 42 -25 49 0 7 -4 13 -10 13 -5 0 -10 5
-10 10 0 6 -27 58 -60 117 -33 58 -60 109 -60 114 0 5 -5 9 -11 9 -5 0 -7 5
-4 10 3 6 3 10 -2 10 -4 0 -13 10 -19 23 -20 41 -84 158 -182 332 -56 98 -81
144 -118 215 -16 30 -32 57 -36 58 -5 2 -8 8 -8 12 0 5 -13 31 -28 57 -24 41
-48 85 -126 228 -6 11 -13 22 -16 25 -3 3 -19 32 -36 65 -18 32 -36 61 -41 62
-6 2 -22 -18 -36 -44z"/>
<path d="M7802 3745 c-84 -41 -157 -75 -161 -75 -4 0 -13 -6 -19 -12 -7 -7
-16 -13 -20 -13 -6 -1 -128 -60 -432 -209 -30 -15 -62 -31 -70 -36 -8 -5 -80
-40 -160 -78 -80 -39 -291 -142 -470 -229 -179 -88 -343 -168 -365 -178 -22
-11 -43 -23 -46 -28 -3 -5 -9 -8 -13 -7 -4 1 -63 -26 -132 -60 -69 -33 -135
-65 -147 -70 -12 -6 -29 -14 -37 -20 -26 -16 -392 -190 -401 -190 -5 0 -9 -4
-9 -10 0 -5 -6 -10 -13 -10 -8 0 -52 -20 -98 -43 l-85 -44 -244 120 c-135 66
-333 162 -440 215 -107 53 -197 96 -200 97 -3 1 -113 54 -245 119 -442 218
-543 266 -554 266 -6 0 -11 5 -11 10 0 6 -4 10 -10 10 -5 0 -74 32 -153 70
-79 38 -149 70 -155 70 -7 0 -12 3 -12 8 0 4 -15 14 -32 21 -46 20 -521 251
-652 317 -60 30 -112 54 -117 52 -5 -2 3 -16 17 -33 14 -16 33 -42 42 -57 9
-16 20 -28 24 -28 4 0 8 -7 8 -15 0 -8 4 -15 8 -15 4 0 15 -12 24 -28 10 -15
28 -40 42 -57 14 -16 30 -35 34 -41 5 -5 15 -21 22 -35 7 -13 16 -26 20 -29 3
-3 23 -27 43 -55 48 -64 59 -79 107 -142 22 -29 40 -57 40 -63 0 -5 3 -10 8
-10 4 0 22 -23 41 -50 19 -28 38 -50 43 -50 4 0 8 -5 8 -10 0 -6 5 -16 10 -23
11 -13 54 -70 84 -112 11 -14 28 -36 38 -48 27 -34 32 -40 51 -70 10 -16 25
-36 32 -45 12 -14 155 -205 255 -342 10 -14 49 -66 87 -116 37 -50 77 -103 88
-118 22 -30 70 -95 83 -111 4 -5 19 -26 32 -45 14 -19 30 -42 37 -50 53 -66
323 -434 323 -440 0 -5 3 -10 8 -12 4 -2 27 -30 52 -63 24 -33 48 -64 52 -70
7 -8 149 -200 226 -304 60 -82 214 -289 225 -301 7 -8 23 -31 37 -50 13 -19
28 -39 33 -45 4 -5 32 -44 63 -85 30 -41 63 -85 72 -98 9 -13 55 -74 102 -137
47 -63 134 -180 193 -260 l109 -146 31 43 c18 24 35 45 39 46 5 2 8 8 8 13 0
9 21 37 53 71 9 10 17 21 17 26 0 4 11 19 25 34 14 15 25 30 25 32 0 6 24 37
48 61 6 8 12 16 12 18 0 4 53 77 180 247 10 14 42 56 70 95 28 38 56 73 62 76
5 3 9 9 9 13 -1 3 3 12 9 19 6 6 29 37 51 67 22 30 48 66 59 80 10 14 36 48
57 77 21 28 46 62 55 75 9 13 24 32 33 43 8 11 72 97 141 190 324 438 469 630
476 633 4 2 8 8 8 14 0 6 10 22 23 37 12 15 32 41 44 57 11 16 52 70 90 121
37 51 76 102 85 115 69 93 174 235 180 243 4 6 26 33 48 62 22 29 40 57 40 62
0 5 4 11 9 13 5 2 39 44 75 93 36 50 69 95 73 100 13 16 139 185 287 385 75
102 144 194 152 205 9 11 61 81 116 155 55 74 111 150 125 168 13 17 23 32 21
32 -2 0 -72 -34 -156 -75z"/>
</g>
</svg>
